<mxfile host="app.diagrams.net" agent="Mozilla/5.0 (Windows NT 10.0; Win64; x64) AppleWebKit/537.36 (KHTML, like Gecko) Chrome/131.0.0.0 Safari/537.36" version="26.0.4">
  <diagram name="Halaman-1" id="d9M_8p38uRSwc1yHG8i2">
    <mxGraphModel dx="934" dy="485" grid="1" gridSize="10" guides="1" tooltips="1" connect="1" arrows="1" fold="1" page="1" pageScale="1" pageWidth="827" pageHeight="1169" math="0" shadow="0">
      <root>
        <mxCell id="0" />
        <mxCell id="1" parent="0" />
        <mxCell id="n1S5Q49twvK9Ftpxd6_4-7" value="" style="edgeStyle=orthogonalEdgeStyle;rounded=0;orthogonalLoop=1;jettySize=auto;html=1;" edge="1" parent="1" source="n1S5Q49twvK9Ftpxd6_4-1" target="n1S5Q49twvK9Ftpxd6_4-6">
          <mxGeometry relative="1" as="geometry" />
        </mxCell>
        <mxCell id="n1S5Q49twvK9Ftpxd6_4-1" value="Start" style="ellipse;whiteSpace=wrap;html=1;" vertex="1" parent="1">
          <mxGeometry x="350" y="21" width="120" height="80" as="geometry" />
        </mxCell>
        <mxCell id="n1S5Q49twvK9Ftpxd6_4-9" value="" style="edgeStyle=orthogonalEdgeStyle;rounded=0;orthogonalLoop=1;jettySize=auto;html=1;" edge="1" parent="1" source="n1S5Q49twvK9Ftpxd6_4-6" target="n1S5Q49twvK9Ftpxd6_4-8">
          <mxGeometry relative="1" as="geometry" />
        </mxCell>
        <mxCell id="n1S5Q49twvK9Ftpxd6_4-6" value="Login" style="whiteSpace=wrap;html=1;" vertex="1" parent="1">
          <mxGeometry x="360" y="131" width="100" height="50" as="geometry" />
        </mxCell>
        <mxCell id="n1S5Q49twvK9Ftpxd6_4-10" style="edgeStyle=orthogonalEdgeStyle;rounded=0;orthogonalLoop=1;jettySize=auto;html=1;entryX=0;entryY=0.5;entryDx=0;entryDy=0;" edge="1" parent="1" source="n1S5Q49twvK9Ftpxd6_4-8" target="n1S5Q49twvK9Ftpxd6_4-6">
          <mxGeometry relative="1" as="geometry">
            <Array as="points">
              <mxPoint x="340" y="271" />
              <mxPoint x="340" y="156" />
            </Array>
          </mxGeometry>
        </mxCell>
        <mxCell id="n1S5Q49twvK9Ftpxd6_4-11" value="tidak" style="edgeLabel;html=1;align=center;verticalAlign=middle;resizable=0;points=[];" vertex="1" connectable="0" parent="n1S5Q49twvK9Ftpxd6_4-10">
          <mxGeometry x="0.0707" y="2" relative="1" as="geometry">
            <mxPoint as="offset" />
          </mxGeometry>
        </mxCell>
        <mxCell id="n1S5Q49twvK9Ftpxd6_4-19" value="" style="edgeStyle=orthogonalEdgeStyle;rounded=0;orthogonalLoop=1;jettySize=auto;html=1;" edge="1" parent="1" source="n1S5Q49twvK9Ftpxd6_4-8" target="n1S5Q49twvK9Ftpxd6_4-18">
          <mxGeometry relative="1" as="geometry" />
        </mxCell>
        <mxCell id="n1S5Q49twvK9Ftpxd6_4-8" value="Berhasil&lt;div&gt;login?&lt;/div&gt;" style="rhombus;whiteSpace=wrap;html=1;" vertex="1" parent="1">
          <mxGeometry x="370" y="231" width="80" height="80" as="geometry" />
        </mxCell>
        <mxCell id="n1S5Q49twvK9Ftpxd6_4-51" value="" style="edgeStyle=orthogonalEdgeStyle;rounded=0;orthogonalLoop=1;jettySize=auto;html=1;" edge="1" parent="1" source="n1S5Q49twvK9Ftpxd6_4-18" target="n1S5Q49twvK9Ftpxd6_4-50">
          <mxGeometry relative="1" as="geometry" />
        </mxCell>
        <mxCell id="n1S5Q49twvK9Ftpxd6_4-18" value="Dashboard" style="shape=parallelogram;perimeter=parallelogramPerimeter;whiteSpace=wrap;html=1;fixedSize=1;" vertex="1" parent="1">
          <mxGeometry x="350" y="360" width="120" height="60" as="geometry" />
        </mxCell>
        <mxCell id="n1S5Q49twvK9Ftpxd6_4-23" value="" style="edgeStyle=orthogonalEdgeStyle;rounded=0;orthogonalLoop=1;jettySize=auto;html=1;" edge="1" parent="1" source="n1S5Q49twvK9Ftpxd6_4-20" target="n1S5Q49twvK9Ftpxd6_4-22">
          <mxGeometry relative="1" as="geometry" />
        </mxCell>
        <mxCell id="n1S5Q49twvK9Ftpxd6_4-20" value="daftar data&lt;div&gt;yang ada&lt;/div&gt;" style="shape=parallelogram;perimeter=parallelogramPerimeter;whiteSpace=wrap;html=1;fixedSize=1;" vertex="1" parent="1">
          <mxGeometry x="360" y="600" width="100" height="50" as="geometry" />
        </mxCell>
        <mxCell id="n1S5Q49twvK9Ftpxd6_4-25" value="" style="edgeStyle=orthogonalEdgeStyle;rounded=0;orthogonalLoop=1;jettySize=auto;html=1;" edge="1" parent="1" source="n1S5Q49twvK9Ftpxd6_4-22" target="n1S5Q49twvK9Ftpxd6_4-24">
          <mxGeometry relative="1" as="geometry" />
        </mxCell>
        <mxCell id="n1S5Q49twvK9Ftpxd6_4-22" value="memilih data" style="whiteSpace=wrap;html=1;" vertex="1" parent="1">
          <mxGeometry x="360" y="680" width="100" height="50" as="geometry" />
        </mxCell>
        <mxCell id="n1S5Q49twvK9Ftpxd6_4-29" value="" style="edgeStyle=orthogonalEdgeStyle;rounded=0;orthogonalLoop=1;jettySize=auto;html=1;" edge="1" parent="1" source="n1S5Q49twvK9Ftpxd6_4-24" target="n1S5Q49twvK9Ftpxd6_4-28">
          <mxGeometry relative="1" as="geometry" />
        </mxCell>
        <mxCell id="n1S5Q49twvK9Ftpxd6_4-35" value="iya" style="edgeLabel;html=1;align=center;verticalAlign=middle;resizable=0;points=[];" vertex="1" connectable="0" parent="n1S5Q49twvK9Ftpxd6_4-29">
          <mxGeometry x="-0.4777" y="3" relative="1" as="geometry">
            <mxPoint as="offset" />
          </mxGeometry>
        </mxCell>
        <mxCell id="n1S5Q49twvK9Ftpxd6_4-39" value="" style="edgeStyle=orthogonalEdgeStyle;rounded=0;orthogonalLoop=1;jettySize=auto;html=1;" edge="1" parent="1" source="n1S5Q49twvK9Ftpxd6_4-24" target="n1S5Q49twvK9Ftpxd6_4-38">
          <mxGeometry relative="1" as="geometry" />
        </mxCell>
        <mxCell id="n1S5Q49twvK9Ftpxd6_4-24" value="manajement&lt;div&gt;karyawan?&lt;/div&gt;" style="rhombus;whiteSpace=wrap;html=1;" vertex="1" parent="1">
          <mxGeometry x="365" y="750" width="90" height="90" as="geometry" />
        </mxCell>
        <mxCell id="n1S5Q49twvK9Ftpxd6_4-33" value="" style="edgeStyle=orthogonalEdgeStyle;rounded=0;orthogonalLoop=1;jettySize=auto;html=1;" edge="1" parent="1" source="n1S5Q49twvK9Ftpxd6_4-28" target="n1S5Q49twvK9Ftpxd6_4-32">
          <mxGeometry relative="1" as="geometry" />
        </mxCell>
        <mxCell id="n1S5Q49twvK9Ftpxd6_4-28" value="mengelola&lt;div&gt;manajement&lt;/div&gt;&lt;div&gt;karyawan&lt;/div&gt;" style="shape=parallelogram;perimeter=parallelogramPerimeter;whiteSpace=wrap;html=1;fixedSize=1;" vertex="1" parent="1">
          <mxGeometry x="210" y="765" width="120" height="60" as="geometry" />
        </mxCell>
        <mxCell id="n1S5Q49twvK9Ftpxd6_4-53" style="edgeStyle=orthogonalEdgeStyle;rounded=0;orthogonalLoop=1;jettySize=auto;html=1;entryX=0;entryY=0.5;entryDx=0;entryDy=0;" edge="1" parent="1" source="n1S5Q49twvK9Ftpxd6_4-32" target="n1S5Q49twvK9Ftpxd6_4-18">
          <mxGeometry relative="1" as="geometry">
            <Array as="points">
              <mxPoint x="50" y="795" />
              <mxPoint x="50" y="390" />
            </Array>
          </mxGeometry>
        </mxCell>
        <mxCell id="n1S5Q49twvK9Ftpxd6_4-32" value="manajement&lt;div&gt;karyawan&lt;/div&gt;" style="whiteSpace=wrap;html=1;" vertex="1" parent="1">
          <mxGeometry x="70" y="765" width="120" height="60" as="geometry" />
        </mxCell>
        <mxCell id="n1S5Q49twvK9Ftpxd6_4-41" value="" style="edgeStyle=orthogonalEdgeStyle;rounded=0;orthogonalLoop=1;jettySize=auto;html=1;" edge="1" parent="1" source="n1S5Q49twvK9Ftpxd6_4-38" target="n1S5Q49twvK9Ftpxd6_4-40">
          <mxGeometry relative="1" as="geometry" />
        </mxCell>
        <mxCell id="n1S5Q49twvK9Ftpxd6_4-38" value="daftar data&lt;div&gt;yang ada&lt;/div&gt;" style="shape=parallelogram;perimeter=parallelogramPerimeter;whiteSpace=wrap;html=1;fixedSize=1;" vertex="1" parent="1">
          <mxGeometry x="360" y="860" width="100" height="50" as="geometry" />
        </mxCell>
        <mxCell id="n1S5Q49twvK9Ftpxd6_4-43" value="" style="edgeStyle=orthogonalEdgeStyle;rounded=0;orthogonalLoop=1;jettySize=auto;html=1;" edge="1" parent="1" source="n1S5Q49twvK9Ftpxd6_4-40" target="n1S5Q49twvK9Ftpxd6_4-42">
          <mxGeometry relative="1" as="geometry" />
        </mxCell>
        <mxCell id="n1S5Q49twvK9Ftpxd6_4-40" value="memilih data" style="whiteSpace=wrap;html=1;" vertex="1" parent="1">
          <mxGeometry x="360" y="940" width="100" height="50" as="geometry" />
        </mxCell>
        <mxCell id="n1S5Q49twvK9Ftpxd6_4-47" value="" style="edgeStyle=orthogonalEdgeStyle;rounded=0;orthogonalLoop=1;jettySize=auto;html=1;" edge="1" parent="1" source="n1S5Q49twvK9Ftpxd6_4-42" target="n1S5Q49twvK9Ftpxd6_4-45">
          <mxGeometry relative="1" as="geometry" />
        </mxCell>
        <mxCell id="n1S5Q49twvK9Ftpxd6_4-55" value="iya" style="edgeLabel;html=1;align=center;verticalAlign=middle;resizable=0;points=[];" vertex="1" connectable="0" parent="n1S5Q49twvK9Ftpxd6_4-47">
          <mxGeometry x="-0.1762" y="2" relative="1" as="geometry">
            <mxPoint as="offset" />
          </mxGeometry>
        </mxCell>
        <mxCell id="n1S5Q49twvK9Ftpxd6_4-63" value="" style="edgeStyle=orthogonalEdgeStyle;rounded=0;orthogonalLoop=1;jettySize=auto;html=1;" edge="1" parent="1" source="n1S5Q49twvK9Ftpxd6_4-42" target="n1S5Q49twvK9Ftpxd6_4-60">
          <mxGeometry relative="1" as="geometry" />
        </mxCell>
        <mxCell id="n1S5Q49twvK9Ftpxd6_4-42" value="Penggajian" style="rhombus;whiteSpace=wrap;html=1;" vertex="1" parent="1">
          <mxGeometry x="365" y="1020" width="90" height="90" as="geometry" />
        </mxCell>
        <mxCell id="n1S5Q49twvK9Ftpxd6_4-44" value="" style="edgeStyle=orthogonalEdgeStyle;rounded=0;orthogonalLoop=1;jettySize=auto;html=1;" edge="1" parent="1" source="n1S5Q49twvK9Ftpxd6_4-45" target="n1S5Q49twvK9Ftpxd6_4-46">
          <mxGeometry relative="1" as="geometry" />
        </mxCell>
        <mxCell id="n1S5Q49twvK9Ftpxd6_4-45" value="mengelola&lt;div&gt;penggajian&lt;/div&gt;" style="shape=parallelogram;perimeter=parallelogramPerimeter;whiteSpace=wrap;html=1;fixedSize=1;" vertex="1" parent="1">
          <mxGeometry x="220" y="1035" width="120" height="60" as="geometry" />
        </mxCell>
        <mxCell id="n1S5Q49twvK9Ftpxd6_4-49" style="edgeStyle=orthogonalEdgeStyle;rounded=0;orthogonalLoop=1;jettySize=auto;html=1;" edge="1" parent="1" source="n1S5Q49twvK9Ftpxd6_4-46" target="n1S5Q49twvK9Ftpxd6_4-18">
          <mxGeometry relative="1" as="geometry">
            <mxPoint x="330" y="390" as="targetPoint" />
            <Array as="points">
              <mxPoint x="50" y="1065" />
              <mxPoint x="50" y="390" />
            </Array>
          </mxGeometry>
        </mxCell>
        <mxCell id="n1S5Q49twvK9Ftpxd6_4-46" value="manajement&lt;div&gt;penggajian&lt;/div&gt;" style="whiteSpace=wrap;html=1;" vertex="1" parent="1">
          <mxGeometry x="80" y="1035" width="120" height="60" as="geometry" />
        </mxCell>
        <mxCell id="n1S5Q49twvK9Ftpxd6_4-52" value="" style="edgeStyle=orthogonalEdgeStyle;rounded=0;orthogonalLoop=1;jettySize=auto;html=1;" edge="1" parent="1" source="n1S5Q49twvK9Ftpxd6_4-50" target="n1S5Q49twvK9Ftpxd6_4-20">
          <mxGeometry relative="1" as="geometry" />
        </mxCell>
        <mxCell id="n1S5Q49twvK9Ftpxd6_4-54" value="tidak" style="edgeLabel;html=1;align=center;verticalAlign=middle;resizable=0;points=[];" vertex="1" connectable="0" parent="n1S5Q49twvK9Ftpxd6_4-52">
          <mxGeometry x="-0.3451" y="2" relative="1" as="geometry">
            <mxPoint as="offset" />
          </mxGeometry>
        </mxCell>
        <mxCell id="n1S5Q49twvK9Ftpxd6_4-137" style="edgeStyle=orthogonalEdgeStyle;rounded=0;orthogonalLoop=1;jettySize=auto;html=1;entryX=1;entryY=0.5;entryDx=0;entryDy=0;" edge="1" parent="1" source="n1S5Q49twvK9Ftpxd6_4-50" target="n1S5Q49twvK9Ftpxd6_4-135">
          <mxGeometry relative="1" as="geometry">
            <Array as="points">
              <mxPoint x="490" y="510" />
              <mxPoint x="490" y="2850" />
            </Array>
          </mxGeometry>
        </mxCell>
        <mxCell id="n1S5Q49twvK9Ftpxd6_4-138" value="iya" style="edgeLabel;html=1;align=center;verticalAlign=middle;resizable=0;points=[];" vertex="1" connectable="0" parent="n1S5Q49twvK9Ftpxd6_4-137">
          <mxGeometry x="-0.9904" y="-4" relative="1" as="geometry">
            <mxPoint as="offset" />
          </mxGeometry>
        </mxCell>
        <mxCell id="n1S5Q49twvK9Ftpxd6_4-50" value="sudah&lt;div&gt;selesai?&lt;/div&gt;" style="rhombus;whiteSpace=wrap;html=1;" vertex="1" parent="1">
          <mxGeometry x="370" y="470" width="80" height="80" as="geometry" />
        </mxCell>
        <mxCell id="n1S5Q49twvK9Ftpxd6_4-59" value="" style="edgeStyle=orthogonalEdgeStyle;rounded=0;orthogonalLoop=1;jettySize=auto;html=1;" edge="1" parent="1" source="n1S5Q49twvK9Ftpxd6_4-60" target="n1S5Q49twvK9Ftpxd6_4-61">
          <mxGeometry relative="1" as="geometry" />
        </mxCell>
        <mxCell id="n1S5Q49twvK9Ftpxd6_4-60" value="daftar data&lt;div&gt;yang ada&lt;/div&gt;" style="shape=parallelogram;perimeter=parallelogramPerimeter;whiteSpace=wrap;html=1;fixedSize=1;" vertex="1" parent="1">
          <mxGeometry x="360" y="1140" width="100" height="50" as="geometry" />
        </mxCell>
        <mxCell id="n1S5Q49twvK9Ftpxd6_4-65" value="" style="edgeStyle=orthogonalEdgeStyle;rounded=0;orthogonalLoop=1;jettySize=auto;html=1;" edge="1" parent="1" source="n1S5Q49twvK9Ftpxd6_4-61" target="n1S5Q49twvK9Ftpxd6_4-64">
          <mxGeometry relative="1" as="geometry" />
        </mxCell>
        <mxCell id="n1S5Q49twvK9Ftpxd6_4-61" value="memilih data" style="whiteSpace=wrap;html=1;" vertex="1" parent="1">
          <mxGeometry x="360" y="1220" width="100" height="50" as="geometry" />
        </mxCell>
        <mxCell id="n1S5Q49twvK9Ftpxd6_4-98" value="" style="edgeStyle=orthogonalEdgeStyle;rounded=0;orthogonalLoop=1;jettySize=auto;html=1;" edge="1" parent="1" source="n1S5Q49twvK9Ftpxd6_4-64" target="n1S5Q49twvK9Ftpxd6_4-97">
          <mxGeometry relative="1" as="geometry" />
        </mxCell>
        <mxCell id="n1S5Q49twvK9Ftpxd6_4-64" value="recrutment" style="rhombus;whiteSpace=wrap;html=1;" vertex="1" parent="1">
          <mxGeometry x="365" y="1300" width="90" height="90" as="geometry" />
        </mxCell>
        <mxCell id="n1S5Q49twvK9Ftpxd6_4-70" value="" style="edgeStyle=orthogonalEdgeStyle;rounded=0;orthogonalLoop=1;jettySize=auto;html=1;" edge="1" parent="1" target="n1S5Q49twvK9Ftpxd6_4-73">
          <mxGeometry relative="1" as="geometry">
            <mxPoint x="365" y="1345" as="sourcePoint" />
          </mxGeometry>
        </mxCell>
        <mxCell id="n1S5Q49twvK9Ftpxd6_4-71" value="iya" style="edgeLabel;html=1;align=center;verticalAlign=middle;resizable=0;points=[];" vertex="1" connectable="0" parent="n1S5Q49twvK9Ftpxd6_4-70">
          <mxGeometry x="-0.1762" y="2" relative="1" as="geometry">
            <mxPoint as="offset" />
          </mxGeometry>
        </mxCell>
        <mxCell id="n1S5Q49twvK9Ftpxd6_4-72" value="" style="edgeStyle=orthogonalEdgeStyle;rounded=0;orthogonalLoop=1;jettySize=auto;html=1;" edge="1" parent="1" source="n1S5Q49twvK9Ftpxd6_4-73" target="n1S5Q49twvK9Ftpxd6_4-74">
          <mxGeometry relative="1" as="geometry" />
        </mxCell>
        <mxCell id="n1S5Q49twvK9Ftpxd6_4-73" value="mengelola&lt;div&gt;recrutment&lt;/div&gt;" style="shape=parallelogram;perimeter=parallelogramPerimeter;whiteSpace=wrap;html=1;fixedSize=1;" vertex="1" parent="1">
          <mxGeometry x="220" y="1315" width="120" height="60" as="geometry" />
        </mxCell>
        <mxCell id="n1S5Q49twvK9Ftpxd6_4-75" style="edgeStyle=orthogonalEdgeStyle;rounded=0;orthogonalLoop=1;jettySize=auto;html=1;entryX=0;entryY=0.5;entryDx=0;entryDy=0;" edge="1" parent="1" source="n1S5Q49twvK9Ftpxd6_4-74" target="n1S5Q49twvK9Ftpxd6_4-18">
          <mxGeometry relative="1" as="geometry">
            <Array as="points">
              <mxPoint x="50" y="1345" />
              <mxPoint x="50" y="390" />
            </Array>
          </mxGeometry>
        </mxCell>
        <mxCell id="n1S5Q49twvK9Ftpxd6_4-74" value="manajement&lt;div&gt;recrutment&lt;/div&gt;" style="whiteSpace=wrap;html=1;" vertex="1" parent="1">
          <mxGeometry x="80" y="1315" width="120" height="60" as="geometry" />
        </mxCell>
        <mxCell id="n1S5Q49twvK9Ftpxd6_4-76" value="" style="edgeStyle=orthogonalEdgeStyle;rounded=0;orthogonalLoop=1;jettySize=auto;html=1;" edge="1" parent="1" source="n1S5Q49twvK9Ftpxd6_4-79" target="n1S5Q49twvK9Ftpxd6_4-81">
          <mxGeometry relative="1" as="geometry" />
        </mxCell>
        <mxCell id="n1S5Q49twvK9Ftpxd6_4-77" value="iya" style="edgeLabel;html=1;align=center;verticalAlign=middle;resizable=0;points=[];" vertex="1" connectable="0" parent="n1S5Q49twvK9Ftpxd6_4-76">
          <mxGeometry x="-0.1762" y="2" relative="1" as="geometry">
            <mxPoint as="offset" />
          </mxGeometry>
        </mxCell>
        <mxCell id="n1S5Q49twvK9Ftpxd6_4-78" value="" style="edgeStyle=orthogonalEdgeStyle;rounded=0;orthogonalLoop=1;jettySize=auto;html=1;" edge="1" parent="1" source="n1S5Q49twvK9Ftpxd6_4-79" target="n1S5Q49twvK9Ftpxd6_4-84">
          <mxGeometry relative="1" as="geometry" />
        </mxCell>
        <mxCell id="n1S5Q49twvK9Ftpxd6_4-79" value="approve cuti" style="rhombus;whiteSpace=wrap;html=1;" vertex="1" parent="1">
          <mxGeometry x="365" y="1580" width="90" height="90" as="geometry" />
        </mxCell>
        <mxCell id="n1S5Q49twvK9Ftpxd6_4-80" value="" style="edgeStyle=orthogonalEdgeStyle;rounded=0;orthogonalLoop=1;jettySize=auto;html=1;" edge="1" parent="1" source="n1S5Q49twvK9Ftpxd6_4-81" target="n1S5Q49twvK9Ftpxd6_4-82">
          <mxGeometry relative="1" as="geometry" />
        </mxCell>
        <mxCell id="n1S5Q49twvK9Ftpxd6_4-81" value="mengelola&lt;div&gt;approve cuti&lt;/div&gt;" style="shape=parallelogram;perimeter=parallelogramPerimeter;whiteSpace=wrap;html=1;fixedSize=1;" vertex="1" parent="1">
          <mxGeometry x="220" y="1595" width="120" height="60" as="geometry" />
        </mxCell>
        <mxCell id="n1S5Q49twvK9Ftpxd6_4-100" style="edgeStyle=orthogonalEdgeStyle;rounded=0;orthogonalLoop=1;jettySize=auto;html=1;entryX=0;entryY=0.5;entryDx=0;entryDy=0;" edge="1" parent="1" source="n1S5Q49twvK9Ftpxd6_4-82" target="n1S5Q49twvK9Ftpxd6_4-18">
          <mxGeometry relative="1" as="geometry">
            <Array as="points">
              <mxPoint x="50" y="1625" />
              <mxPoint x="50" y="390" />
            </Array>
          </mxGeometry>
        </mxCell>
        <mxCell id="n1S5Q49twvK9Ftpxd6_4-82" value="manajement&lt;div&gt;approve cuti&lt;/div&gt;" style="whiteSpace=wrap;html=1;" vertex="1" parent="1">
          <mxGeometry x="80" y="1595" width="120" height="60" as="geometry" />
        </mxCell>
        <mxCell id="n1S5Q49twvK9Ftpxd6_4-83" value="" style="edgeStyle=orthogonalEdgeStyle;rounded=0;orthogonalLoop=1;jettySize=auto;html=1;" edge="1" parent="1" source="n1S5Q49twvK9Ftpxd6_4-84" target="n1S5Q49twvK9Ftpxd6_4-86">
          <mxGeometry relative="1" as="geometry" />
        </mxCell>
        <mxCell id="n1S5Q49twvK9Ftpxd6_4-84" value="daftar data&lt;div&gt;yang ada&lt;/div&gt;" style="shape=parallelogram;perimeter=parallelogramPerimeter;whiteSpace=wrap;html=1;fixedSize=1;" vertex="1" parent="1">
          <mxGeometry x="360" y="1700" width="100" height="50" as="geometry" />
        </mxCell>
        <mxCell id="n1S5Q49twvK9Ftpxd6_4-85" value="" style="edgeStyle=orthogonalEdgeStyle;rounded=0;orthogonalLoop=1;jettySize=auto;html=1;" edge="1" parent="1" source="n1S5Q49twvK9Ftpxd6_4-86" target="n1S5Q49twvK9Ftpxd6_4-87">
          <mxGeometry relative="1" as="geometry" />
        </mxCell>
        <mxCell id="n1S5Q49twvK9Ftpxd6_4-86" value="memilih data" style="whiteSpace=wrap;html=1;" vertex="1" parent="1">
          <mxGeometry x="360" y="1780" width="100" height="50" as="geometry" />
        </mxCell>
        <mxCell id="n1S5Q49twvK9Ftpxd6_4-87" value="izin sakit" style="rhombus;whiteSpace=wrap;html=1;" vertex="1" parent="1">
          <mxGeometry x="365" y="1860" width="90" height="90" as="geometry" />
        </mxCell>
        <mxCell id="n1S5Q49twvK9Ftpxd6_4-88" value="" style="edgeStyle=orthogonalEdgeStyle;rounded=0;orthogonalLoop=1;jettySize=auto;html=1;" edge="1" parent="1" target="n1S5Q49twvK9Ftpxd6_4-91">
          <mxGeometry relative="1" as="geometry">
            <mxPoint x="365" y="1905" as="sourcePoint" />
          </mxGeometry>
        </mxCell>
        <mxCell id="n1S5Q49twvK9Ftpxd6_4-89" value="iya" style="edgeLabel;html=1;align=center;verticalAlign=middle;resizable=0;points=[];" vertex="1" connectable="0" parent="n1S5Q49twvK9Ftpxd6_4-88">
          <mxGeometry x="-0.1762" y="2" relative="1" as="geometry">
            <mxPoint as="offset" />
          </mxGeometry>
        </mxCell>
        <mxCell id="n1S5Q49twvK9Ftpxd6_4-90" value="" style="edgeStyle=orthogonalEdgeStyle;rounded=0;orthogonalLoop=1;jettySize=auto;html=1;" edge="1" parent="1" source="n1S5Q49twvK9Ftpxd6_4-91" target="n1S5Q49twvK9Ftpxd6_4-92">
          <mxGeometry relative="1" as="geometry" />
        </mxCell>
        <mxCell id="n1S5Q49twvK9Ftpxd6_4-91" value="mengelola&lt;div&gt;izin sakit&lt;/div&gt;" style="shape=parallelogram;perimeter=parallelogramPerimeter;whiteSpace=wrap;html=1;fixedSize=1;" vertex="1" parent="1">
          <mxGeometry x="220" y="1875" width="120" height="60" as="geometry" />
        </mxCell>
        <mxCell id="n1S5Q49twvK9Ftpxd6_4-99" style="edgeStyle=orthogonalEdgeStyle;rounded=0;orthogonalLoop=1;jettySize=auto;html=1;entryX=0;entryY=0.5;entryDx=0;entryDy=0;" edge="1" parent="1" source="n1S5Q49twvK9Ftpxd6_4-92" target="n1S5Q49twvK9Ftpxd6_4-18">
          <mxGeometry relative="1" as="geometry">
            <Array as="points">
              <mxPoint x="50" y="1905" />
              <mxPoint x="50" y="390" />
            </Array>
          </mxGeometry>
        </mxCell>
        <mxCell id="n1S5Q49twvK9Ftpxd6_4-92" value="manajement&lt;div&gt;izin sakit&lt;/div&gt;" style="whiteSpace=wrap;html=1;" vertex="1" parent="1">
          <mxGeometry x="80" y="1875" width="120" height="60" as="geometry" />
        </mxCell>
        <mxCell id="n1S5Q49twvK9Ftpxd6_4-94" value="" style="edgeStyle=orthogonalEdgeStyle;rounded=0;orthogonalLoop=1;jettySize=auto;html=1;" edge="1" parent="1" source="n1S5Q49twvK9Ftpxd6_4-95" target="n1S5Q49twvK9Ftpxd6_4-97">
          <mxGeometry relative="1" as="geometry" />
        </mxCell>
        <mxCell id="n1S5Q49twvK9Ftpxd6_4-95" value="daftar data&lt;div&gt;yang ada&lt;/div&gt;" style="shape=parallelogram;perimeter=parallelogramPerimeter;whiteSpace=wrap;html=1;fixedSize=1;" vertex="1" parent="1">
          <mxGeometry x="360" y="1420" width="100" height="50" as="geometry" />
        </mxCell>
        <mxCell id="n1S5Q49twvK9Ftpxd6_4-96" value="" style="edgeStyle=orthogonalEdgeStyle;rounded=0;orthogonalLoop=1;jettySize=auto;html=1;" edge="1" parent="1" source="n1S5Q49twvK9Ftpxd6_4-97">
          <mxGeometry relative="1" as="geometry">
            <mxPoint x="410" y="1580" as="targetPoint" />
          </mxGeometry>
        </mxCell>
        <mxCell id="n1S5Q49twvK9Ftpxd6_4-97" value="memilih data" style="whiteSpace=wrap;html=1;" vertex="1" parent="1">
          <mxGeometry x="360" y="1500" width="100" height="50" as="geometry" />
        </mxCell>
        <mxCell id="n1S5Q49twvK9Ftpxd6_4-101" value="" style="edgeStyle=orthogonalEdgeStyle;rounded=0;orthogonalLoop=1;jettySize=auto;html=1;" edge="1" parent="1" target="n1S5Q49twvK9Ftpxd6_4-122">
          <mxGeometry relative="1" as="geometry">
            <mxPoint x="410" y="1950" as="sourcePoint" />
          </mxGeometry>
        </mxCell>
        <mxCell id="n1S5Q49twvK9Ftpxd6_4-102" value="" style="edgeStyle=orthogonalEdgeStyle;rounded=0;orthogonalLoop=1;jettySize=auto;html=1;" edge="1" parent="1" source="n1S5Q49twvK9Ftpxd6_4-105" target="n1S5Q49twvK9Ftpxd6_4-107">
          <mxGeometry relative="1" as="geometry" />
        </mxCell>
        <mxCell id="n1S5Q49twvK9Ftpxd6_4-103" value="iya" style="edgeLabel;html=1;align=center;verticalAlign=middle;resizable=0;points=[];" vertex="1" connectable="0" parent="n1S5Q49twvK9Ftpxd6_4-102">
          <mxGeometry x="-0.1762" y="2" relative="1" as="geometry">
            <mxPoint as="offset" />
          </mxGeometry>
        </mxCell>
        <mxCell id="n1S5Q49twvK9Ftpxd6_4-104" value="" style="edgeStyle=orthogonalEdgeStyle;rounded=0;orthogonalLoop=1;jettySize=auto;html=1;" edge="1" parent="1" source="n1S5Q49twvK9Ftpxd6_4-105" target="n1S5Q49twvK9Ftpxd6_4-110">
          <mxGeometry relative="1" as="geometry" />
        </mxCell>
        <mxCell id="n1S5Q49twvK9Ftpxd6_4-105" value="berkas&lt;div&gt;pribadi&lt;/div&gt;" style="rhombus;whiteSpace=wrap;html=1;" vertex="1" parent="1">
          <mxGeometry x="365" y="2140" width="90" height="90" as="geometry" />
        </mxCell>
        <mxCell id="n1S5Q49twvK9Ftpxd6_4-106" value="" style="edgeStyle=orthogonalEdgeStyle;rounded=0;orthogonalLoop=1;jettySize=auto;html=1;" edge="1" parent="1" source="n1S5Q49twvK9Ftpxd6_4-107" target="n1S5Q49twvK9Ftpxd6_4-108">
          <mxGeometry relative="1" as="geometry" />
        </mxCell>
        <mxCell id="n1S5Q49twvK9Ftpxd6_4-107" value="mengelola&lt;div&gt;berkas pribadi&lt;/div&gt;" style="shape=parallelogram;perimeter=parallelogramPerimeter;whiteSpace=wrap;html=1;fixedSize=1;" vertex="1" parent="1">
          <mxGeometry x="220" y="2155" width="120" height="60" as="geometry" />
        </mxCell>
        <mxCell id="n1S5Q49twvK9Ftpxd6_4-123" style="edgeStyle=orthogonalEdgeStyle;rounded=0;orthogonalLoop=1;jettySize=auto;html=1;entryX=0;entryY=0.5;entryDx=0;entryDy=0;" edge="1" parent="1" source="n1S5Q49twvK9Ftpxd6_4-108" target="n1S5Q49twvK9Ftpxd6_4-18">
          <mxGeometry relative="1" as="geometry">
            <Array as="points">
              <mxPoint x="50" y="2185" />
              <mxPoint x="50" y="390" />
            </Array>
          </mxGeometry>
        </mxCell>
        <mxCell id="n1S5Q49twvK9Ftpxd6_4-108" value="manajement&lt;div&gt;berkas pribadi&lt;/div&gt;" style="whiteSpace=wrap;html=1;" vertex="1" parent="1">
          <mxGeometry x="80" y="2155" width="120" height="60" as="geometry" />
        </mxCell>
        <mxCell id="n1S5Q49twvK9Ftpxd6_4-109" value="" style="edgeStyle=orthogonalEdgeStyle;rounded=0;orthogonalLoop=1;jettySize=auto;html=1;" edge="1" parent="1" source="n1S5Q49twvK9Ftpxd6_4-110" target="n1S5Q49twvK9Ftpxd6_4-112">
          <mxGeometry relative="1" as="geometry" />
        </mxCell>
        <mxCell id="n1S5Q49twvK9Ftpxd6_4-110" value="daftar data&lt;div&gt;yang ada&lt;/div&gt;" style="shape=parallelogram;perimeter=parallelogramPerimeter;whiteSpace=wrap;html=1;fixedSize=1;" vertex="1" parent="1">
          <mxGeometry x="360" y="2260" width="100" height="50" as="geometry" />
        </mxCell>
        <mxCell id="n1S5Q49twvK9Ftpxd6_4-111" value="" style="edgeStyle=orthogonalEdgeStyle;rounded=0;orthogonalLoop=1;jettySize=auto;html=1;" edge="1" parent="1" source="n1S5Q49twvK9Ftpxd6_4-112" target="n1S5Q49twvK9Ftpxd6_4-113">
          <mxGeometry relative="1" as="geometry" />
        </mxCell>
        <mxCell id="n1S5Q49twvK9Ftpxd6_4-112" value="memilih data" style="whiteSpace=wrap;html=1;" vertex="1" parent="1">
          <mxGeometry x="360" y="2340" width="100" height="50" as="geometry" />
        </mxCell>
        <mxCell id="n1S5Q49twvK9Ftpxd6_4-129" style="edgeStyle=orthogonalEdgeStyle;rounded=0;orthogonalLoop=1;jettySize=auto;html=1;entryX=0.5;entryY=0;entryDx=0;entryDy=0;" edge="1" parent="1" source="n1S5Q49twvK9Ftpxd6_4-113" target="n1S5Q49twvK9Ftpxd6_4-126">
          <mxGeometry relative="1" as="geometry" />
        </mxCell>
        <mxCell id="n1S5Q49twvK9Ftpxd6_4-113" value="laporan" style="rhombus;whiteSpace=wrap;html=1;" vertex="1" parent="1">
          <mxGeometry x="365" y="2420" width="90" height="90" as="geometry" />
        </mxCell>
        <mxCell id="n1S5Q49twvK9Ftpxd6_4-114" value="" style="edgeStyle=orthogonalEdgeStyle;rounded=0;orthogonalLoop=1;jettySize=auto;html=1;" edge="1" parent="1" target="n1S5Q49twvK9Ftpxd6_4-117">
          <mxGeometry relative="1" as="geometry">
            <mxPoint x="365" y="2465" as="sourcePoint" />
          </mxGeometry>
        </mxCell>
        <mxCell id="n1S5Q49twvK9Ftpxd6_4-115" value="iya" style="edgeLabel;html=1;align=center;verticalAlign=middle;resizable=0;points=[];" vertex="1" connectable="0" parent="n1S5Q49twvK9Ftpxd6_4-114">
          <mxGeometry x="-0.1762" y="2" relative="1" as="geometry">
            <mxPoint as="offset" />
          </mxGeometry>
        </mxCell>
        <mxCell id="n1S5Q49twvK9Ftpxd6_4-116" value="" style="edgeStyle=orthogonalEdgeStyle;rounded=0;orthogonalLoop=1;jettySize=auto;html=1;" edge="1" parent="1" source="n1S5Q49twvK9Ftpxd6_4-117" target="n1S5Q49twvK9Ftpxd6_4-118">
          <mxGeometry relative="1" as="geometry" />
        </mxCell>
        <mxCell id="n1S5Q49twvK9Ftpxd6_4-117" value="mengelola&lt;div&gt;laporan&lt;/div&gt;" style="shape=parallelogram;perimeter=parallelogramPerimeter;whiteSpace=wrap;html=1;fixedSize=1;" vertex="1" parent="1">
          <mxGeometry x="220" y="2435" width="120" height="60" as="geometry" />
        </mxCell>
        <mxCell id="n1S5Q49twvK9Ftpxd6_4-124" style="edgeStyle=orthogonalEdgeStyle;rounded=0;orthogonalLoop=1;jettySize=auto;html=1;entryX=0;entryY=0.5;entryDx=0;entryDy=0;" edge="1" parent="1" source="n1S5Q49twvK9Ftpxd6_4-118" target="n1S5Q49twvK9Ftpxd6_4-18">
          <mxGeometry relative="1" as="geometry">
            <Array as="points">
              <mxPoint x="50" y="2465" />
              <mxPoint x="50" y="390" />
            </Array>
          </mxGeometry>
        </mxCell>
        <mxCell id="n1S5Q49twvK9Ftpxd6_4-118" value="manajement&lt;div&gt;laporan&lt;/div&gt;" style="whiteSpace=wrap;html=1;" vertex="1" parent="1">
          <mxGeometry x="80" y="2435" width="120" height="60" as="geometry" />
        </mxCell>
        <mxCell id="n1S5Q49twvK9Ftpxd6_4-119" value="" style="edgeStyle=orthogonalEdgeStyle;rounded=0;orthogonalLoop=1;jettySize=auto;html=1;" edge="1" parent="1" source="n1S5Q49twvK9Ftpxd6_4-120" target="n1S5Q49twvK9Ftpxd6_4-122">
          <mxGeometry relative="1" as="geometry" />
        </mxCell>
        <mxCell id="n1S5Q49twvK9Ftpxd6_4-120" value="daftar data&lt;div&gt;yang ada&lt;/div&gt;" style="shape=parallelogram;perimeter=parallelogramPerimeter;whiteSpace=wrap;html=1;fixedSize=1;" vertex="1" parent="1">
          <mxGeometry x="360" y="1980" width="100" height="50" as="geometry" />
        </mxCell>
        <mxCell id="n1S5Q49twvK9Ftpxd6_4-121" value="" style="edgeStyle=orthogonalEdgeStyle;rounded=0;orthogonalLoop=1;jettySize=auto;html=1;" edge="1" parent="1" source="n1S5Q49twvK9Ftpxd6_4-122">
          <mxGeometry relative="1" as="geometry">
            <mxPoint x="410" y="2140" as="targetPoint" />
          </mxGeometry>
        </mxCell>
        <mxCell id="n1S5Q49twvK9Ftpxd6_4-122" value="memilih data" style="whiteSpace=wrap;html=1;" vertex="1" parent="1">
          <mxGeometry x="360" y="2060" width="100" height="50" as="geometry" />
        </mxCell>
        <mxCell id="n1S5Q49twvK9Ftpxd6_4-125" value="" style="edgeStyle=orthogonalEdgeStyle;rounded=0;orthogonalLoop=1;jettySize=auto;html=1;" edge="1" parent="1" source="n1S5Q49twvK9Ftpxd6_4-126" target="n1S5Q49twvK9Ftpxd6_4-127">
          <mxGeometry relative="1" as="geometry" />
        </mxCell>
        <mxCell id="n1S5Q49twvK9Ftpxd6_4-126" value="daftar data&lt;div&gt;yang ada&lt;/div&gt;" style="shape=parallelogram;perimeter=parallelogramPerimeter;whiteSpace=wrap;html=1;fixedSize=1;" vertex="1" parent="1">
          <mxGeometry x="360" y="2540" width="100" height="50" as="geometry" />
        </mxCell>
        <mxCell id="n1S5Q49twvK9Ftpxd6_4-133" value="" style="edgeStyle=orthogonalEdgeStyle;rounded=0;orthogonalLoop=1;jettySize=auto;html=1;" edge="1" parent="1" source="n1S5Q49twvK9Ftpxd6_4-127" target="n1S5Q49twvK9Ftpxd6_4-132">
          <mxGeometry relative="1" as="geometry" />
        </mxCell>
        <mxCell id="n1S5Q49twvK9Ftpxd6_4-127" value="memilih data" style="whiteSpace=wrap;html=1;" vertex="1" parent="1">
          <mxGeometry x="360" y="2620" width="100" height="50" as="geometry" />
        </mxCell>
        <mxCell id="n1S5Q49twvK9Ftpxd6_4-134" style="edgeStyle=orthogonalEdgeStyle;rounded=0;orthogonalLoop=1;jettySize=auto;html=1;entryX=0;entryY=0.5;entryDx=0;entryDy=0;" edge="1" parent="1" source="n1S5Q49twvK9Ftpxd6_4-132" target="n1S5Q49twvK9Ftpxd6_4-18">
          <mxGeometry relative="1" as="geometry">
            <Array as="points">
              <mxPoint x="50" y="2740" />
              <mxPoint x="50" y="390" />
            </Array>
          </mxGeometry>
        </mxCell>
        <mxCell id="n1S5Q49twvK9Ftpxd6_4-139" value="tidak" style="edgeLabel;html=1;align=center;verticalAlign=middle;resizable=0;points=[];" vertex="1" connectable="0" parent="n1S5Q49twvK9Ftpxd6_4-134">
          <mxGeometry x="-0.9808" y="2" relative="1" as="geometry">
            <mxPoint as="offset" />
          </mxGeometry>
        </mxCell>
        <mxCell id="n1S5Q49twvK9Ftpxd6_4-136" value="" style="edgeStyle=orthogonalEdgeStyle;rounded=0;orthogonalLoop=1;jettySize=auto;html=1;" edge="1" parent="1" source="n1S5Q49twvK9Ftpxd6_4-132" target="n1S5Q49twvK9Ftpxd6_4-135">
          <mxGeometry relative="1" as="geometry" />
        </mxCell>
        <mxCell id="n1S5Q49twvK9Ftpxd6_4-140" value="iya" style="edgeLabel;html=1;align=center;verticalAlign=middle;resizable=0;points=[];" vertex="1" connectable="0" parent="n1S5Q49twvK9Ftpxd6_4-136">
          <mxGeometry x="-0.4069" y="-1" relative="1" as="geometry">
            <mxPoint as="offset" />
          </mxGeometry>
        </mxCell>
        <mxCell id="n1S5Q49twvK9Ftpxd6_4-132" value="sudah selesai?" style="rhombus;whiteSpace=wrap;html=1;" vertex="1" parent="1">
          <mxGeometry x="370" y="2700" width="80" height="80" as="geometry" />
        </mxCell>
        <mxCell id="n1S5Q49twvK9Ftpxd6_4-142" value="" style="edgeStyle=orthogonalEdgeStyle;rounded=0;orthogonalLoop=1;jettySize=auto;html=1;" edge="1" parent="1" source="n1S5Q49twvK9Ftpxd6_4-135" target="n1S5Q49twvK9Ftpxd6_4-141">
          <mxGeometry relative="1" as="geometry" />
        </mxCell>
        <mxCell id="n1S5Q49twvK9Ftpxd6_4-135" value="logout" style="whiteSpace=wrap;html=1;" vertex="1" parent="1">
          <mxGeometry x="350" y="2820" width="120" height="60" as="geometry" />
        </mxCell>
        <mxCell id="n1S5Q49twvK9Ftpxd6_4-144" value="" style="edgeStyle=orthogonalEdgeStyle;rounded=0;orthogonalLoop=1;jettySize=auto;html=1;" edge="1" parent="1" source="n1S5Q49twvK9Ftpxd6_4-141" target="n1S5Q49twvK9Ftpxd6_4-143">
          <mxGeometry relative="1" as="geometry" />
        </mxCell>
        <mxCell id="n1S5Q49twvK9Ftpxd6_4-141" value="berhasil logout" style="shape=parallelogram;perimeter=parallelogramPerimeter;whiteSpace=wrap;html=1;fixedSize=1;" vertex="1" parent="1">
          <mxGeometry x="350" y="2910" width="120" height="60" as="geometry" />
        </mxCell>
        <mxCell id="n1S5Q49twvK9Ftpxd6_4-143" value="selesai" style="ellipse;whiteSpace=wrap;html=1;" vertex="1" parent="1">
          <mxGeometry x="350" y="3000" width="120" height="80" as="geometry" />
        </mxCell>
      </root>
    </mxGraphModel>
  </diagram>
</mxfile>
